<svg width="400" height="400" viewBox="0 0 400 400" fill="none" xmlns="http://www.w3.org/2000/svg">
<circle cx="200" cy="200" r="200" fill="black"/>
<circle cx="199.997" cy="199.997" r="189.48" fill="#F3FCF6"/>
<circle cx="199.997" cy="199.997" r="180.71" fill="black"/>
<path d="M178.334 91.333C178.537 88.0936 178.341 83.8296 178.907 80.8953C181.105 69.4887 187.238 59.0569 194.57 50.1942C195.545 49.0171 197.028 46.6585 197.995 45.7177C200.207 45.5862 200.868 48.1793 202.315 49.6936C210.344 58.1006 217.077 68.3721 219.954 79.7294C220.814 83.1195 219.429 89.0524 220.399 91.856C222.504 93.0234 229.502 86.8974 231.817 86.0577C241.859 82.4126 255.073 82.9319 264.561 87.6011C274.36 92.4488 282.529 100.052 288.063 109.477C285.646 109.219 283.549 108.309 281.24 107.625C275.915 106.046 271.434 105.458 265.959 105.31C255.35 105.022 245.133 107.847 236.752 114.493C216.715 130.385 219.2 159.598 218.983 182.615C229.845 183.173 240.758 182.406 251.566 181.365C258.155 180.73 263.802 180.518 270.326 178.33C291.375 171.27 307.724 139.781 295.691 118.807C296.181 117.727 296.235 117.651 297.259 117.213C306.429 123.475 312.692 129.999 317.508 140.188C321.723 149.098 321.672 159.015 319.61 168.534C318.597 173.201 314.338 176.609 313.275 181.091C319.368 181.143 324.171 181.324 330.106 183.033C339.874 185.846 353.038 194.53 360.056 201.606C352.104 208.246 345.277 215.091 335.353 218.612C333.525 219.26 331.345 220.288 329.42 220.587C323.786 221.462 317.978 221.527 312.306 221.466C314.654 226.471 318.317 230.746 319.891 236.122C324.931 253.331 316.511 270.07 303.054 280.801C301.48 282.048 299.931 283.54 298.155 284.556C298.563 275.389 299.648 266.024 298.03 256.899C294.482 238.96 280.387 224.863 262.249 222.011C248.203 219.805 233.184 219.268 219 220.362C220.087 232.472 219.445 245.3 220.609 257.303C221.659 268.124 227.241 279.902 235.734 286.573C247.686 295.956 264.176 297.658 278.926 296.179C281.105 296.066 283.032 294.714 284.175 294.792C285.767 296.274 280.063 303.459 278.852 304.627C270.742 312.461 260.371 318.462 248.855 318.563C239.411 318.647 233.206 317.726 224.871 313.103C223.282 312.27 221.411 310.423 220.744 310.187C220.26 310.854 220.116 321.909 219.751 324.107C217.951 334.951 212.413 343.234 204.377 350.524C202.873 351.889 200.449 355.681 198.028 353.748C196.082 352.197 194.562 349.919 192.898 348.06C185.997 340.208 180.09 331.492 178.543 320.92C178.143 318.187 178.313 314.41 178.069 311.511C175.087 312.658 172.399 314.61 169.33 315.526C159.489 318.465 146.259 320.932 136.595 316.605C130.532 313.89 114.331 304.483 114.162 296.657C114.56 296.253 115.104 296.292 115.702 296.288C123.728 296.276 132.14 296.865 140.127 296.155C156.477 294.699 171.318 282.004 175.637 266.421C178.098 257.535 178.37 247.794 178.504 238.656C178.605 232.605 179.175 226.315 178.471 220.282C163.513 220.922 147.551 218.688 132.891 222.094C124.432 224.065 116.999 229.632 110.955 235.812C105.054 241.847 101.922 251.665 100.582 259.893C99.8313 266.655 100.455 277.107 100.668 284.178C98.7008 283.099 95.7619 281.724 94.0851 280.251C87.3598 274.34 81.6846 265.539 78.7703 257.114C75.7193 248.291 76.8578 238.557 81.2387 230.453C82.1401 228.785 85.618 224.892 84.6473 222.918C82.3534 222.155 79.02 222.094 76.5894 221.874C62.8604 220.638 47.1336 211.995 39.9414 199.835C42.1264 197.746 44.1736 196.416 46.6658 194.711C53.9604 189.718 61.9722 183.08 71.1756 182.658C75.9789 182.438 80.532 182.118 85.192 182.113C83.4559 177.037 80.0811 170.754 78.9369 165.588C77.3464 158.408 78.0997 145.242 81.4581 138.747C84.9482 131.997 90.7311 125.173 96.6217 120.514C99.4728 118.305 101.912 117.257 104.482 114.729C103.573 118.136 101.567 122.347 101.121 125.722C99.6388 136.932 99.9995 149.279 105.841 159.308C110.714 167.675 119.209 175.474 128.559 178.5C144.303 182.661 162.439 181.975 178.59 182.937C178.982 164.514 181.629 141.215 170.282 125.014C164.222 116.361 155.144 108.969 144.947 105.881C137.414 103.828 128.343 103.392 120.787 105.066C118.49 105.575 116.332 108.168 114.172 107.41C113.793 106.615 114.144 103.905 114.5 103.16C119.491 92.7166 133.892 87.2972 144.545 84.975C151.055 83.5557 155.955 84.3046 162.262 84.8789C170.198 85.6016 171.645 87.3731 178.334 91.333Z" fill="#F3FCF6"/>
</svg>
